PathFileType	4	(X/Y/Z)	C:/Users/beibeiliu/ov580/test_trc/User3\sequence.30_training_dense_right.trc
DataRate	CameraRate	NumFrames	NumMarkers	Units	OrigDataRate	OrigDataStartFrame	OrigNumFrames
120	120	16	19	mm	120	75	99
Frame#	Time	ThumbCMC			ThumbMCP			ThumbIP			ThumbTip			IndexMCP			IndexPIP			IndexTip			MiddleMCP			MiddlePIP			MiddleTip			RingMCP			RingPIP			RingTip			PinkyMCP			PinkyPIP			PinkyTip			BackHand1			BackHand2			BackHand3	
		X0	Y0	Z0	X1	Y1	Z1	X2	Y2	Z2	X3	Y3	Z3	X4	Y4	Z4	X5	Y5	Z5	X6	Y6	Z6	X7	Y7	Z7	X8	Y8	Z8	X9	Y9	Z9	X10	Y10	Z10	X11	Y11	Z11	X12	Y12	Z12	X13	Y13	Z13	X14	Y14	Z14	X15	Y15	Z15	X16	Y16	Z16	X17	Y17	Z17	X18	Y18	Z18	
74	0.616667	153.331	-18.2034	-11.6158	146.589	-14.7775	-46.8034	152.117	-10.7506	-74.4714	169.847	-8.07687	-93.3975	163.693	29.1205	-65.5592	156.092	15.2271	-95.1881	156.65	-10.7398	-105.794	183.351	27.6808	-72.8057	180.09	15.013	-100.478	173.308	-10.3847	-119.574	203.907	19.4488	-66.4548	200.277	4.96165	-97.9121	193.456	-15.0536	-111.386	220.191	6.09045	-61.7218	214.852	-3.36081	-88.2279	203.853	-18.9041	-104.528	210.984	12.8346	-13.5661	208.638	-8.20063	14.0639	176.129	10.4536	1.43349	
75	0.625	148.206	-29.9282	-17.3133	140.625	-36.7597	-50.1099	147.986	-38.6004	-79.7374	169.223	-38.372	-101.654	161.258	2.29482	-81.8642	155.952	-17.8724	-104.663	151.479	-47.4109	-107.152	179.805	2.80682	-82.9793	175.604	-17.9722	-110.989	171.381	-53.952	-120.644	201.638	-6.41749	-81.9132	197.803	-21.2669	-102.331	191.519	-52.0951	-109.97	218.19	-15.359	-67.6516	216.451	-28.5234	-89.8518	204.939	-52.8867	-102.816	206.569	0.533745	-23.2497	203.694	-13.86	6.57128	169.505	2.03902	-9.041	
76	0.633333	141.35	-40.1366	-16.7481	136.174	-53.4455	-52.7495	144.787	-63.6329	-77.7728	162.866	-71.8547	-96.6819	161.142	-23.0335	-85.681	150.615	-48.3385	-106.693	148.714	-82.1766	-98.2033	176.934	-26.6331	-91.2614	174.186	-52.8628	-111.407	164.826	-86.5245	-109.565	195.557	-32.6922	-82.0607	193.779	-58.8799	-102.708	184.936	-86.4951	-98.5638	211.528	-40.4621	-68.9845	209.893	-58.8415	-87.7719	194.199	-85.0568	-91.0132	197.966	-15.6622	-25.7279	200.13	-18.0655	0.389006	165.69	-10.2929	-12.9608	
77	0.641667	129	-43.5313	-14.6324	123.72	-63.8837	-41.2914	128.203	-79.0318	-67.7649	146.837	-92.9984	-83.8676	145.74	-43.0183	-89.278	138.79	-70.7457	-100.687	134.021	-98.906	-87.8395	166.922	-49.5657	-89.7367	157.293	-75.3709	-103.592	150.692	-110.602	-92.9581	186.998	-57.792	-82.9456	177.19	-80.5675	-93.4531	165.615	-106.91	-82.7223	203.04	-63.1219	-64.9791	195.214	-86.5851	-78.5093	177.156	-108.84	-68.8172	189.518	-27.7541	-30.6633	191.031	-26.9005	-1.53977	159.843	-18.0949	-18.4799	
78	0.65	114.971	-41.4161	-7.38002	102.513	-65.1379	-30.5156	104.689	-86.88	-60.082	122.998	-102.073	-70.7693	132.659	-48.8835	-79.5487	117.374	-76.1199	-93.8626	111.163	-102.875	-77.1057	150.235	-57.7143	-81.3128	140.681	-88.2592	-93.2866	125.325	-117.814	-78.295	168.545	-70.0651	-74.1165	158.346	-98.1456	-81.3019	141.722	-117.109	-63.0548	183.293	-77.7675	-61.0187	174.731	-99.7675	-67.3031	152.594	-115.181	-55.8911	177.727	-32.6161	-27.6654	176.763	-26.9067	3.14736	148.482	-20.1151	-17.4971	
79	0.658333	102.627	-36.8146	-5.34303	86.0844	-60.9266	-24.353	81.6981	-82.0726	-41.3604	88.4166	-102.171	-58.741	112.288	-49.8921	-79.0155	98.8439	-78.765	-85.4041	85.8565	-94.6722	-61.8361	129.615	-61.7374	-76.4578	114.913	-90.1624	-82.9166	96.2039	-118.389	-59.129	147.235	-72.7815	-65.6044	131.084	-101.855	-70.5142	113.836	-117.849	-47.255	163.792	-85.9029	-53.7311	145.513	-103.059	-57.4325	124.713	-116.806	-38.2624	165.373	-35.6215	-24.7684	165.73	-28.1026	1.92532	136.482	-18.0286	-14.0959	
80	0.666667	93.3009	-25.5554	-2.69422	72.6873	-52.9463	-19.991	60.8089	-73.7257	-34.5281	54.6613	-94.5971	-47.3417	99.473	-49.0466	-75.2134	75.9158	-72.279	-74.8853	67.1441	-82.8072	-45.2923	111.35	-64.503	-71.0403	91.7541	-90.0173	-71.231	70.533	-106.381	-45.3642	127.512	-75.2451	-60.3017	106.703	-97.8311	-59.5207	86.3573	-109.782	-36.5407	139.36	-86.079	-47.1107	118.049	-105.022	-43.1231	96.4682	-105.872	-22.4167	152.882	-35.9405	-25.3627	156.781	-28.2025	2.42437	128.792	-13.308	-14.9309	
81	0.675	87.0315	-11.9823	-1.98069	62.281	-36.906	-12.9422	44.8354	-56.9151	-26.0737	40.2859	-77.9669	-35.6294	81.422	-40.3858	-69.5268	55.221	-58.5044	-63.28	44.5839	-61.2817	-31.448	91.3547	-61.7472	-66.067	65.0374	-79.4865	-57.9493	43.5721	-86.1153	-31.3058	104.086	-74.3579	-53.1958	76.9119	-88.4601	-47.1412	60.139	-94.7078	-20.8724	113.35	-84.9853	-38.6866	90.685	-95.7798	-30.5296	70.0436	-90.8982	-13.461	142.421	-36.8015	-22.8949	152.023	-28.2205	3.73694	127.178	-10.1981	-17.0951	
82	0.683333	85.0708	7.35012	-4.3027	55.3499	-12.4276	-12.667	38.1357	-35.8516	-23.9277	29.5226	-57.4955	-29.3021	68.687	-30.3667	-63.0426	40.1495	-36.1563	-56.7376	26.9305	-35.427	-30.1575	74.9187	-47.547	-59.6116	45.9062	-53.316	-56.5104	16.5496	-55.3217	-27.0045	78.9493	-62.1079	-45.7341	50.6726	-65.7057	-35.5575	35.366	-63.2712	-13.0492	89.8972	-73.2766	-30.7648	63.287	-76.5173	-21.069	45.8394	-65.1624	-6.29045	129.798	-40.2635	-25.4192	142.632	-27.5187	-0.0743792	122.659	-5.4837	-21.0435	
83	0.691667	94.7405	20.1323	-5.331	57.9693	14.6997	-18.78	36.1887	-1.63256	-28.445	24.1495	-25.8058	-31.8068	63.2129	-11.8286	-61.4094	29.8213	-4.90713	-54.835	14.9846	4.05312	-29.112	61.5499	-32.1358	-56.3232	31.241	-27.3465	-52.5032	3.96351	-16.4888	-30.4656	63.1951	-42.1207	-40.5122	35.4096	-40.0018	-31.7	16.0735	-23.6184	-9.76225	62.5116	-55.8671	-25.0779	39.3815	-46.6216	-17.2159	27.2591	-31.813	-3.09813	116.878	-40.6739	-20.1979	133.055	-30.953	7.71026	123.684	-4.75231	-21.1589	
84	0.7	103.853	30.7628	-7.92459	71.9458	34.0046	-23.8829	42.9481	27.6181	-37.6772	28.4807	7.96625	-34.9987	62.7236	12.4646	-65.6177	33.7944	23.4327	-58.0508	20.2461	38.3528	-35.2059	56.0074	-7.81271	-56.5907	24.1031	6.57897	-54.853	1.38081	23.4591	-33.6113	48.8635	-18.8015	-42.3222	23.0964	-10.636	-32.827	11.9017	13.4165	-17.1533	51.1785	-35.424	-22.7145	26.2847	-21.3672	-17.8123	21.5134	2.78223	-6.94169	102.837	-30.5383	-21.2225	119.973	-28.8125	6.48505	119.198	-4.26552	-20.2947	
85	0.708333	114.205	33.2341	-10.3222	88.2886	47.8476	-28.1463	60.7179	45.754	-42.4151	37.1585	36.6344	-43.8791	74.0192	23.4214	-66.638	50.2079	46.0025	-67.2664	38.629	66.7808	-45.309	57.1413	12.3368	-62.4877	35.2722	29.4138	-62.4573	16.9765	60.2001	-44.8142	45.0623	-1.48723	-43.3842	27.8236	18.4197	-44.6382	16.1585	43.492	-26.1971	41.6054	-10.8828	-27.4507	24.2379	7.41414	-26.5276	28.2672	34.9337	-13.8748	94.8845	-23.9101	-15.0801	109.78	-24.3549	13.5722	120.271	-5.0517	-14.2314	
86	0.716667	127.929	26.146	-11.5152	109.841	46.6501	-32.0203	83.7738	51.8567	-53.7175	59.0074	49.4114	-56.2109	88.4309	22.6199	-72.7687	74.7136	46.7097	-76.1237	64.1468	74.5146	-56.8153	69.7551	12.1982	-66.7732	53.4965	39.5478	-73.3649	45.104	74.0987	-60.4262	53.5124	7.50704	-51.9892	42.0663	32.9936	-57.1602	39.1236	61.7404	-45.1689	48.3559	-0.70892	-33.6209	36.2238	22.6889	-41.2642	39.0306	47.2772	-30.7354	89.7583	-23.6749	-14.7888	103.368	-29.2011	14.2816	121.565	-13.8092	-15.7879	
87	0.725	139.686	11.7473	-6.86916	125.343	28.8058	-37.2324	107.506	38.7671	-61.5928	81.9945	37.6706	-70.8666	106.893	4.50116	-75.1228	98.7673	30.4988	-84.787	95.5086	60.4856	-76.1617	88.1362	-0.0352625	-73.9737	80.3888	25.7917	-85.2506	70.2981	59.0301	-79.9467	71.5914	-3.8379	-60.2482	59.5528	21.4671	-69.4061	59.5867	50.5826	-63.5229	58.5652	-8.25945	-41.2127	52.3773	13.8762	-53.7558	54.4439	42.5183	-45.2302	94.5145	-34.6274	-11.3626	103.064	-33.3103	15.3548	128.076	-25.5011	-7.79181	
88	0.733333	147.954	-2.79922	-1.98969	140.071	11.7161	-36.1115	126.782	14.9459	-61.8344	106.032	14.134	-78.4108	126.175	-22.6804	-71.962	118.617	4.31076	-90.24	117.036	35.0305	-85.8233	103.63	-27.6225	-73.7579	99.3616	-5.76516	-91.5579	95.1173	31.3736	-97.1357	91.3427	-26.4376	-64.6557	81.6851	-3.38523	-81.0383	77.1302	28.469	-78.8928	76.6053	-28.9593	-45.57	68.2803	-8.57219	-65.3371	72.0223	21.3331	-64.4077	104.244	-46.9412	-11.6012	108.571	-44.1299	18.2866	136.784	-41.4057	-1.79857	
89	0.741667	154.664	-21.1825	-1.68298	148.574	-11.4816	-32.8604	143.743	-12.1558	-64.2562	130.574	-13.9822	-81.482	148.875	-50.8155	-64.7392	147.837	-31.2682	-86.9385	135.915	-0.763894	-94.2036	126.923	-58.2277	-66.9269	126.14	-38.8014	-93.6009	121.1	-4.71596	-105.797	111.236	-56.6965	-62.3384	102.885	-40.6953	-82.5865	102.588	-11.3542	-92.7209	91.3038	-55.5265	-47.1263	90.7201	-44.13	-68.9269	89.1352	-18.4163	-79.8572	112.692	-65.4441	-1.24028	111.285	-57.0537	24.7073	147.74	-58.5572	6.46641	
